<svg version="1.1" id="Layer_1" xmlns="http://www.w3.org/2000/svg" xmlns:xlink="http://www.w3.org/1999/xlink" x="0px" y="0px"
	 width="100%" viewBox="0 0 352 448" enable-background="new 0 0 352 448" xml:space="preserve">
<path fill="#000000" opacity="1.000000" stroke="none" 
	d="
M146.167038,280.151978 
	C133.379028,278.458008 121.046211,276.804199 107.319862,274.963531 
	C115.899315,283.897400 118.958237,294.259521 122.491707,305.198395 
	C125.028900,300.261963 126.979851,295.890991 129.430542,291.820923 
	C134.143417,283.993927 137.759689,282.709015 146.361664,285.358490 
	C149.354156,286.280182 152.310791,285.834534 155.267395,285.390686 
	C163.459335,284.160889 169.099197,286.942505 172.840164,294.433716 
	C174.690063,298.138092 176.186417,302.019012 177.779007,305.673767 
	C179.326797,306.256348 180.289429,305.422150 181.181412,304.758575 
	C191.507980,297.076447 202.749252,296.869751 214.393478,300.834198 
	C216.981064,301.715179 219.239029,301.671448 221.599991,300.552826 
	C226.564316,298.200897 231.501511,295.790009 236.493530,293.498505 
	C249.290939,287.624054 257.392822,289.941315 265.035339,301.754944 
	C269.384583,308.477905 272.322083,315.952484 276.362701,323.971558 
	C277.176605,316.623291 277.698853,310.142639 278.641937,303.723785 
	C281.515961,284.162048 286.422546,283.292633 304.570496,278.135315 
	C303.083801,281.903534 300.174103,283.792908 297.048889,284.964539 
	C288.303131,288.243225 285.716125,295.380676 285.407959,303.588867 
	C285.020660,313.904724 285.274719,324.245087 285.271606,334.574860 
	C285.270386,338.617859 284.731812,342.601868 283.085449,346.279297 
	C280.875427,351.215912 276.617462,351.494141 273.524963,347.067291 
	C271.875946,344.706787 271.014313,342.006775 270.343781,339.243683 
	C267.505371,327.546722 261.413879,317.419037 254.874084,307.546967 
	C251.561279,302.546143 247.872253,301.675690 242.391998,304.490692 
	C238.400131,306.541199 234.615845,309.003296 230.780640,311.349884 
	C223.912933,315.551880 216.979065,317.556793 209.088974,313.705353 
	C204.044418,311.242889 198.654434,311.686249 193.676804,314.393097 
	C190.173737,316.298065 186.828613,318.493835 183.416367,320.565338 
	C175.895523,325.131012 170.177628,323.753601 165.950119,316.004211 
	C164.046707,312.515106 162.625458,308.742126 161.216782,305.010590 
	C160.086823,302.017334 158.387405,300.769043 155.120392,301.639984 
	C153.216949,302.147400 151.037231,302.660309 149.210724,302.220398 
	C143.578812,300.863922 141.856018,304.042725 140.227859,308.521301 
	C137.332214,316.486389 134.603348,324.566345 129.913864,331.760437 
	C128.330566,334.189331 126.460243,336.211212 123.752327,337.400421 
	C118.668640,339.633057 114.036316,338.049957 111.666008,333.001526 
	C109.286385,327.933289 108.779724,322.487335 108.629021,316.942444 
	C108.414711,309.057129 105.832901,301.815948 102.501190,294.538025 
	C90.330666,305.428650 87.859779,305.355103 80.796043,293.819031 
	C79.041168,298.188538 78.661148,302.405579 78.293282,306.627563 
	C77.384102,317.062164 77.498199,327.574585 75.714104,337.946991 
	C74.850624,342.967163 73.455200,347.665649 69.704193,351.557587 
	C70.988121,354.365662 73.387192,355.842712 75.748711,357.311951 
	C87.457993,364.596802 100.532722,367.782532 113.965363,369.633301 
	C149.566681,374.538605 185.399933,373.808868 221.197632,373.706268 
	C242.211746,373.646057 263.109467,372.177734 283.612244,367.211456 
	C292.566986,365.042480 301.148376,361.900482 308.487610,356.048126 
	C308.942291,355.685608 309.604095,355.582855 310.916229,355.063904 
	C309.052582,360.035950 305.547485,362.472137 301.977081,364.658112 
	C291.268829,371.214233 279.244049,374.075317 267.091461,376.193970 
	C249.203751,379.312469 231.129868,380.607086 212.983856,381.511383 
	C195.323471,382.391510 177.671539,382.669312 160.033051,382.171082 
	C138.886459,381.573792 117.855843,379.493988 97.474724,373.248505 
	C86.213676,369.797729 75.662125,365.003479 67.088013,356.636658 
	C65.832848,355.411865 64.586792,354.747589 62.709023,354.779175 
	C58.272823,354.853821 55.617371,352.358673 54.454052,348.196991 
	C53.466797,344.665131 52.814606,341.072327 52.695614,337.393921 
	C51.972286,315.032806 53.612514,292.815552 56.843044,270.703644 
	C57.115829,268.836517 57.148800,266.757416 58.658516,265.175140 
	C60.923389,266.324158 60.149956,268.382050 60.298161,270.072723 
	C62.149929,291.196533 60.380192,312.379883 61.298908,333.521790 
	C61.420986,336.331055 61.618141,339.064209 63.099815,342.054688 
	C65.281723,338.719055 65.320488,335.221649 65.632263,331.877533 
	C66.607063,321.421753 66.856247,310.932404 66.679070,300.433685 
	C66.587105,294.984192 67.987900,289.879822 70.391884,285.053101 
	C76.221375,273.348541 82.213097,272.134552 91.683632,280.826843 
	C94.016769,278.714813 94.993637,275.458160 98.485832,273.709290 
	C93.436066,271.027222 88.557083,270.751740 84.052040,269.302002 
	C78.495720,267.513885 72.893211,265.857666 67.823692,262.899353 
	C59.327042,257.941132 57.756851,248.934097 64.629601,242.084290 
	C72.236458,234.502823 82.338181,233.096344 93.531113,231.366562 
	C91.217712,234.374802 88.836571,234.610016 86.816139,235.380264 
	C80.726776,237.701752 74.647133,240.085342 69.631027,244.362625 
	C63.403862,249.672607 64.146553,254.884491 71.681442,258.016144 
	C83.621025,262.978516 96.349731,264.799744 109.023453,266.627625 
	C153.141724,272.990845 197.530975,274.783997 242.029083,273.556854 
	C260.819702,273.038666 279.574829,271.353394 297.749878,265.851379 
	C303.174255,264.209320 308.317078,262.086243 313.255371,257.829803 
	C313.354706,262.001373 310.918243,263.541748 308.774811,265.067627 
	C300.705872,270.811890 291.252930,273.126923 281.822174,275.097656 
	C260.108154,279.635193 238.054398,281.217438 215.928970,282.424652 
	C192.727585,283.690643 169.672592,282.528839 146.167038,280.151978 
z"/>
<path fill="#000000" opacity="1.000000" stroke="none" 
	d="
M253.380829,188.638580 
	C241.155029,193.631683 228.555679,194.972076 215.964035,196.109344 
	C207.518112,196.872162 199.015289,197.005356 190.297256,197.432053 
	C193.268356,200.254639 196.120987,202.964691 198.766327,205.477814 
	C201.069031,204.754715 201.691849,203.024261 202.904053,201.921234 
	C206.127533,198.988068 209.660553,198.043655 213.250809,200.888626 
	C215.861359,202.957245 217.740540,202.546844 220.285767,200.732224 
	C226.643936,196.199203 229.529251,197.005005 233.444382,203.743820 
	C234.750916,205.992630 235.413513,208.683472 237.682800,210.531982 
	C241.171906,209.022629 241.917633,205.800385 243.035400,202.946075 
	C245.940460,195.527771 251.316116,191.644638 259.205536,190.987915 
	C259.290466,191.511749 259.432983,192.014603 259.367981,192.043030 
	C251.392014,195.532196 246.327835,201.326416 244.170944,209.912369 
	C243.400864,212.977814 240.945267,215.752792 237.457916,215.869095 
	C234.410812,215.970718 233.346527,212.875183 231.956573,210.639648 
	C231.430038,209.792801 231.031082,208.867599 230.524734,208.007080 
	C227.259705,202.458191 226.468109,202.180145 221.550003,206.263229 
	C217.939392,209.260788 214.581039,209.060562 211.190750,206.333237 
	C209.422363,204.910675 208.226822,204.850708 206.552902,206.553131 
	C199.066528,214.166901 197.946976,214.115799 190.801010,206.543457 
	C190.247467,205.956909 189.606339,205.453033 188.819687,204.742508 
	C185.592621,207.315369 185.472549,211.226791 183.913300,214.381989 
	C182.165512,217.918640 182.250992,223.633987 176.807724,223.401901 
	C171.622955,223.180817 171.691437,217.591171 170.009750,213.998032 
	C169.117310,212.091217 169.105392,209.768433 167.117554,208.074677 
	C163.956284,210.517960 160.723801,213.449982 156.753738,209.381256 
	C154.599655,211.284454 155.518860,213.871918 154.880783,216.016739 
	C154.120377,218.572784 153.654068,221.192047 151.693970,223.221832 
	C147.854889,227.197327 143.691101,226.664490 141.325775,221.676682 
	C139.013321,216.800323 138.308472,211.488846 137.720474,206.188156 
	C137.504898,204.244690 137.563614,202.267670 136.234344,200.603683 
	C128.754547,209.028320 126.455231,208.667618 122.870499,198.510666 
	C121.266068,199.697281 121.115089,201.632309 120.345795,203.215012 
	C118.746155,206.506027 117.032341,209.760269 115.722542,213.166931 
	C114.836395,215.471695 111.021370,215.973557 111.954491,219.109726 
	C113.154877,223.144165 115.158775,226.758820 118.512627,229.525085 
	C125.348526,235.163345 133.607773,237.158798 142.013718,238.542877 
	C150.055405,239.866989 158.178421,240.615555 166.352997,240.738785 
	C184.827957,241.017288 203.312531,242.140976 221.771255,240.636261 
	C234.530441,239.596146 247.418381,238.788116 258.617126,231.381729 
	C258.944397,231.165298 259.497040,231.289642 260.415222,231.218750 
	C259.468201,234.319504 257.171875,235.547241 254.907272,236.774994 
	C243.931778,242.725464 231.764969,243.942535 219.707947,245.154816 
	C202.454498,246.889572 185.101868,246.940353 167.798248,246.171448 
	C154.501099,245.580582 141.263641,243.984787 128.631058,239.291428 
	C128.319000,239.175491 127.993919,239.093887 127.684097,238.972778 
	C116.581497,234.631943 109.348610,227.552612 108.726974,214.719421 
	C108.073563,201.229980 110.770569,188.225708 113.441002,175.224960 
	C114.631416,169.429520 122.792442,165.544434 131.633362,165.803940 
	C128.839310,168.414307 125.428032,168.890579 122.803055,170.670990 
	C120.108078,172.498856 116.175270,173.829422 116.666664,177.769394 
	C117.121964,181.419907 121.021042,181.942062 123.966766,182.910995 
	C134.315475,186.314957 145.111938,187.369400 155.844223,188.575012 
	C177.391632,190.995499 199.025391,191.375443 220.687729,190.783691 
	C227.355698,190.601532 233.946045,189.892715 240.503143,188.695374 
	C247.050934,187.499725 253.424850,185.829529 260.115234,181.529068 
	C258.936401,185.933731 256.167236,187.046494 253.380829,188.638580 
M148.178009,211.577286 
	C148.699860,208.973206 149.008698,206.303879 149.782654,203.777023 
	C152.319382,195.494888 156.849594,194.291077 162.731827,200.416565 
	C174.154251,194.464645 173.473831,206.042801 177.490082,211.340179 
	C179.919464,206.346436 181.624908,201.463074 186.338425,197.545135 
	C171.144379,196.289047 156.846405,195.250961 142.092117,192.464172 
	C143.611328,200.832123 144.949890,208.205063 146.288452,215.578003 
	C146.611313,215.560440 146.934158,215.542877 147.257019,215.525314 
	C147.502838,214.452744 147.748672,213.380173 148.178009,211.577286 
M120.239082,189.399582 
	C121.507042,184.462982 117.071861,185.453400 114.510025,183.356064 
	C113.445793,192.082367 112.405487,200.007858 113.298149,208.124069 
	C115.497704,202.076279 117.697250,196.028473 120.239082,189.399582 
M129.608597,189.578934 
	C126.209007,192.339706 129.908356,194.604187 129.903259,197.141968 
	C129.860718,194.662857 135.276016,192.246216 129.608597,189.578934 
z"/>
<path fill="#000000" opacity="1.000000" stroke="none" 
	d="
M145.777893,128.594437 
	C147.962921,127.673805 149.855164,127.219398 152.296509,127.454994 
	C150.634933,130.608444 146.165573,129.622620 144.753174,133.912354 
	C158.128769,138.235947 171.950089,138.090546 185.655548,139.057144 
	C199.425735,140.028320 213.120819,139.869675 226.883850,138.355225 
	C218.162308,143.986221 207.873566,141.129761 198.021774,143.538971 
	C200.195450,145.297165 201.964722,146.728256 204.182907,148.522446 
	C209.108994,140.816010 216.682251,144.441345 223.485672,144.054749 
	C221.586975,146.298752 219.082870,147.398376 216.356979,147.236099 
	C212.347748,146.997437 209.857651,148.713104 207.762924,151.973373 
	C205.035065,156.219055 203.496017,156.358749 200.103455,152.583969 
	C197.698578,149.908127 195.479416,148.963669 192.451797,151.342789 
	C189.860184,153.379318 187.021866,153.455322 184.102219,151.896332 
	C183.453842,153.449097 183.031769,154.707626 182.423813,155.868851 
	C180.669174,159.220261 177.982285,159.807938 175.772980,156.838120 
	C173.399094,153.647079 170.866486,152.398895 166.946884,152.939575 
	C165.499069,153.139297 163.845016,151.952515 162.306381,151.344086 
	C161.393936,150.983292 160.410126,150.097931 159.520660,150.803116 
	C155.160355,154.260010 151.807343,151.943558 148.270309,148.548416 
	C145.704941,152.877289 145.903931,157.671890 144.486984,161.943344 
	C143.756836,164.144440 146.552368,165.477020 148.449173,166.486099 
	C152.786591,168.793579 157.550629,169.745529 162.362305,170.192734 
	C180.292496,171.859085 198.226685,172.720444 216.129684,169.757889 
	C220.172501,169.088882 223.914139,167.426773 228.784546,165.700928 
	C225.724518,170.535278 221.628891,171.398605 217.739731,172.229507 
	C202.308823,175.526321 186.685242,175.843414 171.010101,174.709000 
	C166.199585,174.360855 161.468246,173.487671 156.733719,172.452469 
	C140.095917,168.814636 136.875229,159.003937 139.232056,143.810974 
	C139.531998,141.877472 139.940948,139.876663 141.295044,138.272751 
	C142.740311,138.647659 142.097412,139.905090 142.539230,141.072388 
	C143.395523,140.091461 144.167099,139.207596 145.167114,138.062027 
	C141.642838,134.902069 140.235657,131.634857 145.777893,128.594437 
M154.829117,143.711258 
	C155.657440,142.801804 157.014023,142.201080 156.673782,140.541153 
	C154.984451,139.486298 153.262817,138.871155 151.253632,139.919128 
	C151.476685,141.952850 152.447601,143.271912 154.829117,143.711258 
M169.864319,144.167847 
	C169.707169,141.282578 168.637863,140.913849 164.276794,142.271179 
	C165.217972,144.757629 167.028870,145.206482 169.864319,144.167847 
z"/>
<path fill="#000000" opacity="1.000000" stroke="none" 
	d="
M211.807739,133.365479 
	C205.108673,134.977936 198.861313,134.858749 192.853592,132.311478 
	C188.677277,130.540710 184.859497,130.773026 181.194336,133.440063 
	C180.929871,133.632507 180.694260,133.901199 180.399338,134.009598 
	C177.132446,135.210266 161.819000,128.894806 160.241531,125.623505 
	C158.981491,123.010483 159.736343,120.813370 161.916229,118.975159 
	C164.549850,116.754326 167.507248,114.811104 168.598068,111.346840 
	C173.043365,111.164360 177.373001,111.260910 179.053574,106.023529 
	C179.585175,104.366867 181.070404,103.772736 182.708023,104.580620 
	C184.619614,105.523666 186.299377,104.733475 187.982208,104.086388 
	C194.855194,101.443504 194.847031,101.422287 198.102875,108.400192 
	C203.228271,106.629250 205.193909,109.360497 207.637558,113.814812 
	C209.554443,117.308937 211.391434,120.935738 213.250656,124.491791 
	C214.800354,127.455833 216.178024,130.754745 211.807739,133.365479 
M195.212189,130.292709 
	C199.643311,131.141922 204.106339,130.570892 208.546127,130.462173 
	C209.986771,130.426895 211.649857,129.459305 211.007202,127.525711 
	C210.413467,125.739288 208.938477,126.394249 207.674683,126.928169 
	C204.759369,128.159821 201.910416,129.226639 198.585876,128.039078 
	C197.410034,127.619057 195.505081,127.760063 195.212189,130.292709 
z"/>
<path fill="#000000" opacity="1.000000" stroke="none" 
	d="
M269.820129,354.680908 
	C279.939758,353.273376 289.465912,351.213745 298.964081,348.305969 
	C297.613739,350.963623 294.992737,351.785950 292.572968,352.673126 
	C283.636200,355.949585 274.331360,357.840179 264.952759,359.180481 
	C236.866379,363.194366 208.591934,364.209534 180.286179,363.165955 
	C152.851944,362.154449 125.464806,360.192200 98.730972,353.270020 
	C93.916367,352.023407 89.218086,350.248383 84.583168,348.420502 
	C82.281242,347.512756 79.689957,346.530609 78.552650,342.499084 
	C86.263817,346.620117 93.632301,348.848663 101.213921,350.494324 
	C114.586868,353.397034 128.190842,354.489746 141.767334,355.588348 
	C170.330383,357.899689 198.966278,358.058380 227.605225,357.704803 
	C241.588531,357.532135 255.511978,356.504242 269.820129,354.680908 
z"/>
<path fill="#000000" opacity="1.000000" stroke="none" 
	d="
M207.422134,233.810638 
	C204.389267,232.430252 202.833313,229.991959 201.007355,227.853455 
	C198.921417,225.410477 197.095779,224.919846 194.374619,227.379929 
	C185.015793,235.840897 181.112839,235.915070 170.877350,228.462891 
	C164.866959,224.086884 164.541489,224.137421 159.776596,230.106186 
	C158.636459,231.534393 157.529663,232.994995 156.306366,234.349350 
	C155.158493,235.620209 153.446823,236.100250 152.333252,234.804642 
	C148.357330,230.178696 142.731125,229.228424 137.301743,227.457962 
	C141.417725,225.046219 145.612137,226.066650 149.176498,228.107834 
	C153.006546,230.301117 155.064301,230.030502 157.558304,226.202393 
	C161.903366,219.533035 166.204147,219.003296 173.164337,223.301605 
	C175.556091,224.778656 177.534912,226.963364 180.378632,227.668808 
	C184.039001,228.576874 186.836945,226.835861 189.413574,224.567307 
	C197.153732,217.752563 199.006531,217.906052 205.877747,225.964691 
	C206.621353,226.836823 207.237625,227.890717 208.894348,228.151398 
	C213.237198,223.148178 218.298508,224.023743 223.436981,227.250656 
	C226.763992,229.339981 230.114700,228.869507 233.479660,227.525314 
	C236.608337,226.275528 239.179550,226.604935 241.575531,230.444107 
	C237.202881,229.187149 233.905960,230.607178 230.535431,231.816879 
	C226.948196,233.104355 223.608124,231.897964 220.479660,230.241470 
	C217.311920,228.564194 214.681091,228.074356 212.483734,231.765533 
	C211.550690,233.332870 209.848541,234.310654 207.422134,233.810638 
z"/>
<path fill="#000000" opacity="1.000000" stroke="none" 
	d="
M276.650146,248.419647 
	C281.914246,252.603348 281.970612,253.271240 278.647430,258.797760 
	C276.583130,262.230743 275.876434,266.901154 270.225861,266.563263 
	C266.241638,266.324982 263.113708,264.540161 260.899780,261.505646 
	C258.078094,257.638123 254.462967,253.405731 256.109344,248.423355 
	C257.792633,243.329330 263.488770,245.154892 267.452728,244.081802 
	C269.010437,243.660095 270.739807,243.872513 272.903198,243.772461 
	C271.907349,247.082794 274.343933,247.464691 276.650146,248.419647 
M267.922638,260.349030 
	C269.429535,261.380768 271.216187,261.993652 272.190704,260.080719 
	C273.438934,257.630524 276.131226,256.041260 276.332764,253.044113 
	C276.358795,252.656754 275.875641,252.193619 275.554657,251.830811 
	C271.547394,247.301712 266.501495,246.755188 260.927704,250.379166 
	C262.082916,254.208420 264.195679,257.424469 267.922638,260.349030 
z"/>
<path fill="#000000" opacity="1.000000" stroke="none" 
	d="
M228.856979,251.795685 
	C234.242920,251.157547 236.615082,254.570404 238.490707,258.382385 
	C239.945923,261.339905 238.669235,264.082672 236.438553,265.978516 
	C233.151138,268.772522 229.105179,269.299866 225.233627,267.463562 
	C221.983856,265.922211 218.834305,263.963898 216.069473,261.672485 
	C213.945145,259.911865 214.384415,257.653717 215.912659,255.097336 
	C217.799438,251.941177 219.694290,250.007935 223.363388,251.756744 
	C225.169022,252.617371 226.734711,254.092300 228.856979,251.795685 
M227.293747,257.730530 
	C226.595123,258.362061 224.993988,258.270813 225.141037,259.458374 
	C225.407669,261.611633 227.386780,262.155853 229.113510,262.553864 
	C230.896301,262.964813 232.857391,263.052765 233.875763,261.032898 
	C234.837357,259.125610 233.308411,257.987885 232.225388,256.798157 
	C230.536926,254.943344 229.076935,255.579407 227.293747,257.730530 
z"/>
<path fill="#000000" opacity="1.000000" stroke="none" 
	d="
M96.730202,253.228226 
	C94.068214,251.794327 93.094009,249.971786 94.487267,247.352158 
	C95.318741,245.788773 96.208435,244.067245 93.550598,243.564789 
	C91.228378,243.125778 90.343178,244.706512 90.036667,246.784332 
	C89.831558,248.174744 90.800987,249.754395 89.186584,251.187820 
	C85.722076,248.560928 85.818398,245.185837 87.807404,242.084366 
	C89.946503,238.748840 93.440643,237.820740 96.977676,239.863953 
	C99.800133,241.494370 102.481163,243.364838 105.319756,245.011688 
	C108.404984,246.801605 109.408043,250.137207 106.538338,253.032516 
	C101.469330,258.146759 95.070427,260.358093 86.920265,261.098206 
	C90.250435,257.049622 94.578316,256.658661 97.458435,254.089417 
	C97.526176,254.028992 97.471039,253.754196 97.393463,253.628616 
	C97.312752,253.497879 97.135231,253.426941 96.730202,253.228226 
z"/>
<path fill="#000000" opacity="1.000000" stroke="none" 
	d="
M130.355576,256.885193 
	C131.030731,258.871521 132.751617,259.343445 133.513260,258.232269 
	C136.943497,253.227661 139.374115,255.856796 141.740662,259.182861 
	C145.048172,254.988525 144.611725,253.664627 138.528931,249.484360 
	C140.682480,247.264389 142.820236,248.332275 144.642044,249.504547 
	C147.411972,251.286896 148.358261,254.244431 148.077118,257.329620 
	C147.769455,260.705597 146.608383,263.881500 143.262741,265.573914 
	C141.483978,266.473724 128.395874,263.404724 127.147346,261.845337 
	C124.815170,258.932465 125.429108,255.867157 127.069641,252.984985 
	C128.679214,250.157181 130.894058,247.897644 134.520676,248.031418 
	C135.429398,248.064926 135.888809,248.856216 136.022949,250.124512 
	C133.177002,251.279877 130.730682,253.064178 130.355576,256.885193 
z"/>
<path fill="#000000" opacity="1.000000" stroke="none" 
	d="
M169.865173,256.851868 
	C173.315491,254.516617 176.434006,251.311050 180.725937,252.641708 
	C184.278381,253.743103 188.114319,260.913574 187.914337,265.007111 
	C187.772232,267.915680 186.138733,269.632172 183.283630,269.946136 
	C175.787750,270.770630 169.584290,264.881622 169.865173,256.851868 
M181.752960,257.976135 
	C181.094482,257.081146 180.663483,255.903290 178.978302,255.947662 
	C177.939209,257.948181 176.849304,260.046509 175.525070,262.595947 
	C178.174835,263.548187 180.315201,266.471680 182.798691,264.787354 
	C185.140656,263.199005 182.854126,260.645416 181.752960,257.976135 
z"/>
</svg>